<svg width="800" height="127" viewBox="0 0 800 127" fill="none" xmlns="http://www.w3.org/2000/svg">
<path d="M536.794 49.155C546.28 49.155 553.746 51.1603 559.19 55.1698C563.939 58.6474 566.973 63.2161 568.29 68.8761C568.623 70.3071 567.527 71.6268 566.061 71.7171L551.911 72.5876C550.646 72.6654 549.553 71.7771 549.035 70.6208C548.67 69.8056 548.192 69.0397 547.601 68.323C546.525 66.9865 545.107 65.9266 543.347 65.1442C541.619 64.3292 539.549 63.9223 537.137 63.9223C533.91 63.9223 531.187 64.606 528.971 65.9751C526.754 67.3116 525.646 69.1053 525.646 71.3545C525.646 73.1472 526.363 74.6632 527.797 75.9018C529.231 77.1405 531.693 78.1347 535.181 78.8845L548.774 81.6228C556.076 83.1223 561.521 85.5345 565.107 88.8595C568.692 92.1844 570.485 96.5528 570.485 101.964C570.485 106.886 569.034 111.206 566.133 114.922C563.264 118.638 559.32 121.539 554.3 123.626C549.313 125.679 543.558 126.706 537.039 126.706C527.096 126.706 519.175 124.636 513.275 120.496C508.169 116.865 504.902 112.098 503.474 106.196C503.125 104.751 504.235 103.413 505.72 103.335L521.266 102.518C522.519 102.452 523.599 103.328 524.056 104.496C524.849 106.523 526.145 108.14 527.944 109.348C530.324 110.912 533.372 111.694 537.088 111.694C540.739 111.694 543.672 110.993 545.889 109.592C548.138 108.157 549.28 106.316 549.312 104.067C549.28 102.176 548.481 100.627 546.917 99.421C545.352 98.1823 542.939 97.2376 539.679 96.5856L526.673 93.9939C519.338 92.527 513.878 89.9839 510.292 86.3656C506.739 82.7472 504.962 78.1343 504.962 72.5275C504.962 67.7031 506.266 63.5466 508.874 60.0586C511.514 56.5709 515.214 53.8817 519.973 51.991C524.765 50.1003 530.373 49.155 536.794 49.155Z" fill="#41535B"/>
<path fill-rule="evenodd" clip-rule="evenodd" d="M357.374 49.155C361.546 49.155 365.54 49.644 369.354 50.6219C373.2 51.5998 376.607 53.1162 379.573 55.1698C382.572 57.2234 384.936 59.8632 386.663 63.0902C388.391 66.2848 389.254 70.1157 389.254 74.5816V122.705C389.254 124.105 388.12 125.239 386.72 125.239H372.035C370.635 125.239 369.5 124.105 369.5 122.705V115.189C369.5 114.987 369.337 114.824 369.136 114.824C368.999 114.824 368.874 114.901 368.811 115.022C367.616 117.288 366.036 119.292 364.072 121.034C362.051 122.794 359.622 124.18 356.787 125.19C353.951 126.168 350.675 126.657 346.959 126.657C342.167 126.657 337.896 125.826 334.147 124.164C330.398 122.469 327.432 119.975 325.248 116.682C323.097 113.357 322.021 109.217 322.021 104.262C322.021 100.09 322.787 96.5856 324.319 93.7496C325.851 90.9136 327.937 88.6309 330.577 86.9032C333.218 85.1756 336.217 83.8721 339.575 82.9919C342.965 82.1118 346.518 81.492 350.234 81.1334C354.602 80.677 358.123 80.2532 360.796 79.862C363.469 79.4383 365.409 78.819 366.616 78.0041C367.821 77.1892 368.424 75.9831 368.424 74.3861V74.0928C368.424 70.996 367.446 68.6001 365.49 66.905C363.567 65.2099 360.829 64.3616 357.276 64.3616C353.527 64.3616 350.545 65.1936 348.328 66.8561C346.714 68.0429 345.497 69.4542 344.678 71.0903C344.139 72.1677 343.064 72.9468 341.863 72.8493L327.538 71.6861C326.013 71.5621 324.935 70.12 325.401 68.6626C326.487 65.2614 328.164 62.247 330.431 59.6194C333.3 56.2618 336.999 53.6862 341.53 51.8933C346.094 50.0678 351.376 49.155 357.374 49.155ZM368.571 93.3666C368.571 92.0996 367.09 91.2179 365.882 91.5978C364.774 91.9237 363.519 92.2337 362.117 92.5271C360.715 92.7878 359.313 93.032 357.911 93.2602C356.51 93.4558 355.239 93.6355 354.098 93.7984C351.653 94.157 349.517 94.7274 347.692 95.5097C345.866 96.2921 344.448 97.352 343.438 98.6885C342.428 99.9923 341.922 101.622 341.922 103.577C341.922 106.413 342.949 108.581 345.003 110.081C347.089 111.548 349.73 112.282 352.924 112.282C355.988 112.282 358.694 111.678 361.041 110.473C363.388 109.234 365.23 107.571 366.567 105.485C367.903 103.399 368.571 101.035 368.571 98.3946V93.3666Z" fill="#41535B"/>
<path fill-rule="evenodd" clip-rule="evenodd" d="M463.749 49.155C467.921 49.155 471.914 49.644 475.728 50.6219C479.575 51.5998 482.981 53.1162 485.947 55.1698C488.946 57.2234 491.311 59.8631 493.038 63.0902C494.766 66.2848 495.63 70.1157 495.63 74.5816V122.705C495.63 124.105 494.495 125.239 493.096 125.239H478.409C477.01 125.239 475.875 124.105 475.875 122.705V115.189C475.875 114.987 475.712 114.824 475.51 114.824C475.374 114.824 475.249 114.901 475.186 115.022C473.991 117.288 472.412 119.292 470.448 121.034C468.427 122.794 465.997 124.18 463.161 125.19C460.326 126.168 457.05 126.657 453.334 126.657C448.542 126.657 444.271 125.826 440.522 124.164C436.773 122.469 433.807 119.975 431.623 116.682C429.471 113.357 428.396 109.217 428.396 104.262C428.396 100.09 429.162 96.5856 430.694 93.7496C432.226 90.9135 434.312 88.6309 436.953 86.9032C439.593 85.1757 442.592 83.8721 445.95 82.9919C449.34 82.1118 452.893 81.492 456.61 81.1334C460.978 80.677 464.499 80.2532 467.172 79.862C469.845 79.4382 471.784 78.819 472.99 78.0041C474.196 77.1892 474.799 75.9832 474.799 74.3861V74.0928C474.799 70.9961 473.821 68.6001 471.866 66.905C469.942 65.2099 467.204 64.3616 463.651 64.3616C459.902 64.3616 456.919 65.1936 454.702 66.8561C453.088 68.0429 451.872 69.4542 451.053 71.0903C450.513 72.1677 449.439 72.9468 448.238 72.8493L433.914 71.6861C432.389 71.5622 431.311 70.1201 431.776 68.6626C432.863 65.2614 434.539 62.247 436.806 59.6194C439.675 56.2618 443.375 53.6862 447.906 51.8933C452.47 50.0678 457.751 49.155 463.749 49.155ZM474.946 93.3672C474.946 92.1001 473.466 91.218 472.257 91.5978C471.148 91.9237 469.894 92.2337 468.492 92.5271C467.09 92.7878 465.688 93.032 464.287 93.2602C462.885 93.4558 461.613 93.6355 460.472 93.7984C458.027 94.157 455.892 94.7275 454.067 95.5097C452.241 96.2921 450.823 97.3521 449.813 98.6885C448.802 99.9923 448.297 101.622 448.297 103.577C448.297 106.413 449.324 108.581 451.377 110.081C453.464 111.548 456.104 112.282 459.299 112.282C462.363 112.282 465.069 111.679 467.416 110.473C469.763 109.234 471.605 107.571 472.942 105.485C474.278 103.398 474.946 101.035 474.946 98.3946V93.3672Z" fill="#41535B"/>
<path fill-rule="evenodd" clip-rule="evenodd" d="M609.926 49.155C614.098 49.155 618.092 49.6439 621.906 50.6219C625.752 51.5998 629.159 53.1161 632.125 55.1698C635.124 57.2235 637.488 59.8631 639.216 63.0902C640.944 66.2848 641.807 70.1157 641.807 74.5816V122.705C641.807 124.105 640.672 125.239 639.273 125.239H624.587C623.187 125.239 622.053 124.105 622.053 122.705V115.189C622.053 114.987 621.889 114.824 621.688 114.824C621.552 114.824 621.426 114.901 621.363 115.022C620.168 117.287 618.589 119.292 616.625 121.034C614.604 122.794 612.175 124.18 609.339 125.19C606.503 126.168 603.227 126.657 599.511 126.657C594.719 126.657 590.448 125.826 586.699 124.164C582.951 122.469 579.984 119.975 577.8 116.682C575.649 113.357 574.573 109.217 574.573 104.262C574.573 100.09 575.339 96.5856 576.871 93.7496C578.404 90.9135 580.49 88.6309 583.131 86.9032C585.771 85.1757 588.77 83.872 592.128 82.9919C595.518 82.1118 599.071 81.492 602.787 81.1334C607.155 80.6771 610.676 80.2532 613.349 79.862C616.022 79.4383 617.962 78.819 619.168 78.0041C620.374 77.1892 620.977 75.9832 620.977 74.3861V74.0928C620.977 70.9962 619.999 68.6001 618.043 66.905C616.12 65.2099 613.381 64.3616 609.828 64.3616C606.079 64.3616 603.097 65.1936 600.88 66.8561C599.266 68.0429 598.049 69.4542 597.23 71.0903C596.691 72.1677 595.616 72.9468 594.415 72.8493L580.092 71.6861C578.567 71.5623 577.489 70.1202 577.954 68.6626C579.04 65.2615 580.717 62.247 582.983 59.6194C585.852 56.2617 589.553 53.6862 594.084 51.8933C598.647 50.0679 603.928 49.155 609.926 49.155ZM621.124 93.3672C621.124 92.1 619.643 91.2178 618.434 91.5978C617.326 91.9237 616.071 92.2337 614.669 92.5271C613.268 92.7878 611.866 93.032 610.464 93.2602C609.062 93.4558 607.791 93.6355 606.65 93.7984C604.205 94.157 602.069 94.7274 600.244 95.5097C598.419 96.2921 597 97.3521 595.99 98.6885C594.98 99.9923 594.474 101.622 594.474 103.577C594.474 106.413 595.501 108.581 597.555 110.081C599.641 111.548 602.282 112.282 605.476 112.282C608.54 112.282 611.247 111.679 613.594 110.473C615.941 109.234 617.782 107.571 619.119 105.485C620.455 103.398 621.124 101.035 621.124 98.3946V93.3672Z" fill="#41535B"/>
<path d="M782.388 32.1388C783.787 32.1388 784.922 33.2733 784.922 34.6729V47.599C784.922 48.9983 786.057 50.133 787.456 50.1331H796.519C797.918 50.1332 799.053 51.2677 799.053 52.6672V63.2455C799.053 64.645 797.918 65.7795 796.519 65.7796H787.456C786.056 65.7797 784.922 66.9142 784.922 68.3137V102.159C784.922 104.082 785.215 105.582 785.802 106.658C786.389 107.701 787.204 108.435 788.247 108.858C789.322 109.282 790.561 109.494 791.963 109.494C792.941 109.494 793.919 109.413 794.897 109.25C796.146 109 797.357 109.806 797.62 111.053L799.945 122.055C800.215 123.334 799.468 124.605 798.2 124.922C797.55 125.084 796.824 125.255 796.022 125.435C794.131 125.891 791.832 126.168 789.127 126.266C784.107 126.461 779.706 125.794 775.925 124.262C772.176 122.73 769.258 120.349 767.172 117.122C765.151 113.996 764.124 110.074 764.091 105.357V68.3137C764.091 66.9142 762.957 65.7797 761.557 65.7796H756.357C754.957 65.7794 753.822 64.6449 753.822 63.2455V52.6672C753.822 51.2678 754.957 50.1333 756.357 50.1331H761.557C762.957 50.133 764.091 48.9983 764.091 47.599V34.6729C764.091 33.2733 765.226 32.1388 766.625 32.1388H782.388Z" fill="#41535B"/>
<path d="M229.855 25.0969C230.884 25.097 231.81 25.7188 232.2 26.6702L258.911 91.8372C259.046 92.1656 259.365 92.3804 259.72 92.3804C260.075 92.3804 260.395 92.1656 260.53 91.8372L287.241 26.6702C287.631 25.7187 288.557 25.0969 289.585 25.0969H311.462C312.861 25.0969 313.996 26.2315 313.996 27.631V122.705C313.996 124.105 312.861 125.239 311.462 125.239H295.994C294.594 125.239 293.46 124.105 293.46 122.705V60.5548C293.46 60.2809 293.237 60.0586 292.963 60.0586C292.761 60.0587 292.578 60.1823 292.503 60.3704L267.351 123.158C266.965 124.119 266.033 124.75 264.998 124.75H254.445C253.408 124.75 252.476 124.118 252.091 123.156L226.936 60.1261C226.861 59.9379 226.679 59.8144 226.477 59.8143C226.203 59.8143 225.981 60.0358 225.981 60.3092V122.705C225.981 124.105 224.847 125.239 223.447 125.239H207.977C206.578 125.239 205.443 124.105 205.443 122.705V27.631C205.443 26.2315 206.579 25.0969 207.978 25.0969H229.855Z" fill="#41535B"/>
<path d="M418.204 25.0969C419.603 25.097 420.738 26.2316 420.738 27.631V122.705C420.738 124.105 419.603 125.239 418.204 125.239H402.442C401.042 125.239 399.907 124.105 399.907 122.705V27.631C399.907 26.2315 401.042 25.0969 402.442 25.0969H418.204Z" fill="#41535B"/>
<path d="M670.756 25.0969C672.156 25.0969 673.291 26.2315 673.291 27.631V77.8723C673.291 78.2963 673.634 78.6401 674.058 78.6401C674.284 78.6401 674.499 78.5401 674.645 78.3673L697.713 51.0327C698.194 50.4621 698.904 50.1331 699.65 50.1331H716.877C719.042 50.1331 720.21 52.6713 718.802 54.3154L695.794 81.1872C695.047 82.0595 694.98 83.3251 695.63 84.2714L721.071 121.269C722.227 122.951 721.024 125.239 718.983 125.239H700.748C699.906 125.239 699.119 124.821 698.648 124.124L680.775 97.6708C679.845 96.2942 677.864 96.1704 676.769 97.4202L673.918 100.676C673.514 101.138 673.291 101.731 673.291 102.345V122.705C673.291 124.105 672.156 125.239 670.756 125.239H654.994C653.595 125.239 652.46 124.105 652.46 122.705V27.631C652.46 26.2316 653.595 25.097 654.994 25.0969H670.756Z" fill="#41535B"/>
<path d="M745.391 50.1331C746.791 50.1331 747.925 51.2677 747.925 52.6672V122.705C747.925 124.105 746.791 125.239 745.391 125.239H729.63C728.23 125.239 727.095 124.105 727.095 122.705V52.6672C727.095 51.2677 728.23 50.1331 729.63 50.1331H745.391Z" fill="#41535B"/>
<path d="M737.559 19.376C740.656 19.376 743.297 20.4191 745.481 22.5053C747.697 24.5589 748.806 27.0207 748.806 29.8892C748.806 32.7902 747.697 35.2842 745.481 37.3703C743.297 39.4239 740.656 40.4507 737.559 40.4508C734.462 40.4507 731.805 39.424 729.589 37.3703C727.405 35.2841 726.313 32.7903 726.313 29.8892C726.313 27.0207 727.405 24.5589 729.589 22.5053C731.805 20.4191 734.462 19.376 737.559 19.376Z" fill="#41535B"/>
<path d="M25.124 0C52.8747 0.000164749 75.3709 22.4964 75.3711 50.2471V115.569C75.371 121.119 70.8714 125.618 65.3213 125.618H10.0498C4.4997 125.618 0.000123569 121.119 0 115.569V10.0498C0 4.49963 4.49963 0 10.0498 0H25.124ZM92.1211 25.124C115.247 25.1241 133.994 43.8706 133.994 66.9961V115.569C133.994 121.119 129.494 125.618 123.944 125.618H93.7959C88.2458 125.618 83.7463 121.119 83.7461 115.569V33.498C83.7462 28.873 87.496 25.124 92.1211 25.124ZM147.393 50.2471C158.493 50.2471 167.491 59.2463 167.491 70.3467V115.569C167.491 121.119 162.992 125.618 157.442 125.618H152.417C146.867 125.618 142.368 121.119 142.368 115.569V55.2725C142.368 52.4974 144.618 50.2471 147.393 50.2471Z" fill="url(#paint0_linear_22_1577)"/>
<defs>
<linearGradient id="paint0_linear_22_1577" x1="0" y1="0" x2="167.252" y2="125.438" gradientUnits="userSpaceOnUse">
<stop offset="0.172787" stop-color="#0575E6"/>
<stop offset="1" stop-color="#5CDB95"/>
</linearGradient>
</defs>
</svg>
